<svg xmlns="http://www.w3.org/2000/svg" viewBox="0 0 309.25 290.5"><defs><style>.cls-1{fill:#b410cc;}.cls-2{fill:#d56a88;}.cls-3{fill:#f6c343;}.cls-4{fill:#616bd0;}.cls-5{fill:#0e0e10;}.cls-6{fill:#0ec6d4;}.cls-7{fill:#82c58c;}</style></defs><g id="Calque_2" data-name="Calque 2"><g id="Calque_2-2" data-name="Calque 2"><path class="cls-1" d="M249.81,94c0,.41,0,.82,0,1.22a106.89,106.89,0,0,0-95.16,13.16A106.89,106.89,0,0,0,61.82,94.45c0-.15,0-.3,0-.45a94,94,0,0,1,188,0Z"/><path class="cls-1" d="M110.19,176.17a94.25,94.25,0,0,1-47.37-68.35,93.89,93.89,0,0,1,81.06,9A106.94,106.94,0,0,0,110.19,176.17Z"/><path class="cls-1" d="M187,182.68a94,94,0,0,1-64.6-.82,94,94,0,0,1,32.23-57.14A94,94,0,0,1,187,182.68Z"/><path class="cls-1" d="M215.25,102.5a93.41,93.41,0,0,1,33.42,6.14,94.24,94.24,0,0,1-49.39,68.69,106.94,106.94,0,0,0-33.9-60.47A93.33,93.33,0,0,1,215.25,102.5Z"/><path class="cls-1" d="M155.81,188a93.41,93.41,0,0,1-33.42-6.14,94,94,0,0,1,32.23-57.14,94,94,0,0,1,32.37,58A93.36,93.36,0,0,1,155.81,188Z"/><path class="cls-2" d="M215.25,102.5a93.41,93.41,0,0,1,33.42,6.14,94.24,94.24,0,0,1-49.39,68.69,106.94,106.94,0,0,0-33.9-60.47A93.33,93.33,0,0,1,215.25,102.5Z"/><path class="cls-1" d="M188,196.5a93.82,93.82,0,0,1-33.38,71.78,93.83,93.83,0,0,1-33.37-71.78c0-.41,0-.82,0-1.22a107.11,107.11,0,0,0,66.72.77C188,196.2,188,196.35,188,196.5Z"/><path class="cls-3" d="M309.25,196.5a93.95,93.95,0,0,1-143.87,79.64A106.75,106.75,0,0,0,201,196.5c0-1.83-.05-3.65-.14-5.46a107.34,107.34,0,0,0,60-76.71A94.08,94.08,0,0,1,309.25,196.5Z"/><path class="cls-4" d="M110.19,176.17a94.25,94.25,0,0,1-47.37-68.35,93.89,93.89,0,0,1,81.06,9A106.94,106.94,0,0,0,110.19,176.17Z"/><path class="cls-5" d="M155.81,188a93.41,93.41,0,0,1-33.42-6.14,94,94,0,0,1,32.23-57.14,94,94,0,0,1,32.37,58A93.36,93.36,0,0,1,155.81,188Z"/><path class="cls-6" d="M108.46,189.93q-.21,3.25-.21,6.57a106.7,106.7,0,0,0,35.63,79.64,94,94,0,1,1-93.35-163A107.33,107.33,0,0,0,108.46,189.93Z"/><path class="cls-7" d="M188,196.5a93.82,93.82,0,0,1-33.38,71.78,93.83,93.83,0,0,1-33.37-71.78c0-.41,0-.82,0-1.22a107.11,107.11,0,0,0,66.72.77C188,196.2,188,196.35,188,196.5Z"/></g></g></svg>